<?xml version="1.0" encoding="UTF-8"?>
<svg id="Layer_1" xmlns="http://www.w3.org/2000/svg" version="1.1" viewBox="0 0 1920 1080">
  <!-- Generator: Adobe Illustrator 29.0.1, SVG Export Plug-In . SVG Version: 2.1.0 Build 192)  -->
  <defs>
    <style>
      .st0, .st1 {
        fill: #fff;
      }

      .st1 {
        fill-rule: evenodd;
      }
    </style>
  </defs>
  <g>
    <path class="st1" d="M318.31,35.31c73.26,0,140.73,24.76,194.53,66.36,3.64,4.73,5.27,16.68,3.73,35.71-7.69,88.58-42.19,168.95-94.02,243.65-34.91,48.26-93.83,105.71-123.59,120.99-22.48,12.4-42-.42-41.66-29.62,1.27-79.5,3.3-171.54,4.56-233.47,1.26-61.93-6.47-97.66-16.37-128.52-11.93-28.37-26.63-45.42-47.24-38.31-3.56-4.16-2.35-11.35,5.08-15.36,35.67-13.83,74.44-21.43,114.99-21.43h0ZM615.09,238.36c-1.94-5.24-11.88-7.61-15.62-3.61,6.03,13.19,8.96,28.73,4.97,47.88-19,89.37-73.92,159.93-146.01,221.52-57.72,49.81-121.39,87.89-193.99,108.43-78.43,14.59-121.08-14.96-123.87-82.4-2.92-62.37-.62-125.48-.93-188.23,1.01-38.83-3.57-76.36-15.99-113.28-9.34-27-24.28-47.3-45.27-62.15-4.52-3.2-12.2-4.53-17.95.45C22.43,219.44,0,283.9,0,353.61c0,175.8,142.51,318.31,318.31,318.31s318.31-142.51,318.31-318.31c0-40.65-7.63-79.51-21.52-115.25Z"/>
    <path class="st1" d="M18.05,771.27L.14,1033.35c-.13,5.83,3.91,10.71,9.9,10.71h33.57c119.69,0,186.38-180.64,209.99-270.01,1.79-7.85-4.2-12.72-9.68-12.72h-62.09c-4.63,0-7.94,3.27-9.38,7.26-11.15,38.67-62.15,168.6-81.55,167.91l11.24-164.66c.1-5.58-3.79-10.5-9.98-10.5H27.75c-3.57,0-8.96,2.7-9.7,9.93h0ZM271.3,758.69l66.48-32.89c5.6-2.98,14.56.67,14.17,9.73l-1.78,25.77h26.19c5.3,0,10.17,4.13,9.82,10.88l-4.53,59.08c-.76,5.21-4.3,9.21-9.87,9.34h-27.02l-5.21,76.96c-1.24,16.22,9.61,28.22,24.59,31.49,4.83,1.13,7.99,5.15,7.72,10.82l-5.09,74.55c-.82,5.71-4.96,9.4-10.51,9.25-64.96-5.06-105.96-59.77-101.93-112.69l11.3-163.77c.4-3.93,2.15-6.76,5.67-8.53h0ZM399.04,771.27l-17.92,262.08c-.13,5.83,3.91,10.71,9.9,10.71h33.57c119.7,0,186.38-180.64,210-270.01,1.79-7.85-4.2-12.72-9.68-12.72h-62.09c-4.63,0-7.95,3.27-9.38,7.26-11.15,38.67-62.15,168.6-81.55,167.91l11.23-164.66c.1-5.58-3.79-10.5-9.97-10.5h-64.42c-3.57,0-8.96,2.7-9.7,9.93Z"/>
  </g>
  <g>
    <path class="st0" d="M1504.81,495.15c-8.36-8.39-18.58-15.1-30.33-19.96-11.78-4.85-24.46-7.31-37.76-7.31s-25.74,2.32-36.96,6.91c-11.19,4.58-21.11,11.16-29.5,19.55-8.43,8.42-15.16,18.38-20,29.61-4.84,11.18-7.29,23.31-7.29,36.06,0,13.87,2.35,26.87,6.94,38.64,4.59,11.76,11.19,22.24,19.62,31.16,8.39,8.91,18.34,15.88,29.54,20.7,11.12,4.83,23.56,7.28,36.86,7.28s26.01-2.46,37.76-7.31c11.74-4.85,22.07-11.59,30.78-20.01,8.64-8.39,15.48-18.58,20.31-30.31,4.87-11.74,7.32-24.44,7.32-37.74s-2.45-25.84-7.29-37.31c-4.87-11.5-11.61-21.58-20-29.98Z"/>
    <path class="st0" d="M1410.68,30.69c-281.26,0-509.29,228.03-509.29,509.31s228.03,509.31,509.29,509.31,509.32-228.03,509.32-509.31S1691.97,30.69,1410.68,30.69ZM1211.53,674.59c-6.42,14.27-15.65,26.87-27.36,37.47-11.71,10.61-26.01,18.81-42.39,24.36-16.3,5.52-34.61,8.31-54.37,8.31-17.45,0-34.61-1.66-50.95-4.93-12.99-2.6-40.83-11.59-51.71-15.19-2.69-.89-4.49-3.4-4.49-6.23v-70.06c0-8.22,6.46-10.57,12.92-8.22,18.93,6.89,53.82,23.03,95.86,23.42,18.48.17,31.85-4.26,39.73-12.66,4.39-4.66,6.63-11.36,6.39-18.86-.14-3.65-.73-6.95-1.73-9.82-1-2.74-3.14-5.13-6.56-7.28-4.04-2.51-9.74-5.23-16.96-8.08-7.43-2.9-17.31-5.97-29.33-9.1-36.2-9.88-62.84-23.33-79.21-39.98-16.68-16.98-25.15-39.53-25.15-67.04,0-16.74,3.25-32.33,9.71-46.34,6.43-13.98,15.51-26.19,26.98-36.27,11.4-10.02,25.22-17.92,41.07-23.49,15.82-5.53,33.3-8.34,51.99-8.34,15.27,0,29.95,1.16,43.6,3.71,25.6,4.77,35.58,8.3,46.88,12.22,2.73.94,4.59,3.4,4.59,6.27v66.71c0,9.39-5.32,11.08-10.02,9.39-8.22-2.94-22.52-7.89-38.72-12.43-14.61-4.1-28.81-6.28-42.28-6.28-15.1,0-27.08,2.98-35.65,8.86-8.15,5.57-12.09,13.01-12.09,22.75,0,8.35,4.46,14.16,14.09,18.28,2.56,1.03,4.94,1.95,7.05,2.75,2.11.79,4.77,1.71,7.91,2.76,3.14,1.05,7.53,2.34,13.47,3.96,5.98,1.63,14.44,4.09,25.11,7.3,15.2,4.35,27.7,8.94,37.07,13.61,9.57,4.78,17.58,10.37,23.84,16.61,9.47,8.93,17.03,19.92,22.38,32.57,5.32,12.64,8.05,26.41,8.05,40.96,0,17.78-3.28,34.04-9.71,48.32ZM1606.82,632.91c-9.64,21.95-22.87,41.44-39.41,57.92-16.55,16.51-36.2,29.74-58.45,39.32-22.38,9.63-46.26,14.51-71.02,14.51-30.3,0-59.49-7.38-86.74-21.95-27.26-14.55-49.19-34.49-65.22-59.28-5.49-8.76-10.09-17.39-13.68-25.69-3.63-8.36-6.6-17.76-8.81-27.92-2.18-10.08-3.7-21.72-4.53-34.58-.79-12.68-1.21-27.85-1.21-45.09V198.78c0-3.63,2.94-6.57,6.56-6.57h76.14c3.63,0,6.56,2.94,6.56,6.57v213.94c29.81-21.03,62.11-31.69,96.17-31.69,23.66,0,46.7,4.88,68.47,14.53,21.69,9.62,40.8,22.87,56.76,39.36,15.89,16.46,28.84,35.78,38.45,57.44,9.64,21.78,14.51,45.36,14.51,70.09s-4.91,48.44-14.54,70.47ZM1780.72,642.22c8.74,9.12,25.29,14,49.16,14.49h3.66c3.66,0,6.6,2.94,6.6,6.57v73.71c0,3.63-2.94,6.57-6.6,6.57h-11.02c-50.85,0-89.71-15.96-115.52-47.43-10.19-12.81-17.62-27.54-22.11-43.85-4.42-16.09-6.67-37.16-6.67-62.61v-123.99h-52.34c-3.63,0-6.56-2.94-6.56-6.57v-73.7c0-3.64,2.94-6.58,6.56-6.58h52.34v-103.69c0-3.63,2.94-6.57,6.56-6.57h76.14c3.63,0,6.56,2.94,6.56,6.57v103.69h66.05c3.66,0,6.6,2.94,6.6,6.58v73.7c0,3.63-2.94,6.57-6.6,6.57h-66.05v124.81c0,25.19,4.46,42.59,13.23,51.72Z"/>
  </g>
</svg>