<?xml version="1.0" encoding="UTF-8" standalone="no"?>
<svg
   height="1080"
   version="1.1"
   viewBox="0 0 2757.1113 1080"
   width="2757.1113"
   id="svg14"
   sodipodi:docname="CNA logo (2018).svg"
   inkscape:version="1.4.2 (f4327f4, 2025-05-13)"
   xmlns:inkscape="http://www.inkscape.org/namespaces/inkscape"
   xmlns:sodipodi="http://sodipodi.sourceforge.net/DTD/sodipodi-0.dtd"
   xmlns="http://www.w3.org/2000/svg"
   xmlns:svg="http://www.w3.org/2000/svg">
  <defs
     id="defs14" />
  <sodipodi:namedview
     id="namedview14"
     pagecolor="#ffffff"
     bordercolor="#000000"
     borderopacity="0.25"
     inkscape:showpageshadow="2"
     inkscape:pageopacity="0.0"
     inkscape:pagecheckerboard="0"
     inkscape:deskcolor="#d1d1d1"
     inkscape:zoom="0.32930049"
     inkscape:cx="1357.4228"
     inkscape:cy="548.13158"
     inkscape:window-width="1366"
     inkscape:window-height="697"
     inkscape:window-x="-8"
     inkscape:window-y="-8"
     inkscape:window-maximized="1"
     inkscape:current-layer="svg14" />
  <path
     d="m 386.63041,650.06563 c -168.65929,0 -305.895364,-127.41421 -305.895364,-283.9565 0,-156.54228 137.236074,-283.922743 305.895364,-283.922743 h 411.60698 v -48.46803 c 0,-18.394899 -14.91843,-33.3470838 -33.34708,-33.3470838 H 388.08176 C 174.09338,0.40502531 0,164.57529 0,366.58166 0,568.58804 174.09338,732.79205 388.11551,732.79205 h 376.80855 c 18.3949,0 33.34708,-14.98594 33.34708,-33.34708 V 650.09938 H 386.66417 Z"
     fill="#ed1941"
     id="path1"
     style="stroke-width:33.7521" />
  <path
     d="m 388.11551,200.35252 h 376.80855 c 18.3949,0 33.34708,-14.98593 33.34708,-33.38083 v -50.2569 H 386.66417 c -149.6231,0 -271.36696,111.8545 -271.36696,249.39434 0,137.53985 121.77761,249.42809 271.36696,249.42809 h 411.60697 v -49.34558 c 0,-18.3949 -14.91843,-33.34709 -33.34708,-33.34709 H 388.11551 c -103.75399,0 -188.16801,-74.59216 -188.16801,-166.26289 0,-91.67073 84.38027,-166.22914 188.16801,-166.22914 z"
     fill="#ed1941"
     id="path2"
     style="stroke-width:33.7521" />
  <path
     d="m 1715.7885,0 h -54.3072 v 577.86987 c 0,7.3242 -7.9655,11.91449 -14.2771,8.23551 L 1007.4667,212.87455 c -6.3791,-3.74648 -14.31088,0.87756 -14.31088,8.23552 V 733.5346 l 54.74588,0.10125 c 12.3871,0 22.4452,-10.09188 22.4452,-22.44515 V 345.92537 l 633.9996,377.01106 c 8.5731,5.13032 19.9138,3.71274 27.0017,-3.10519 4.4553,-4.28652 6.9192,-9.99062 6.9192,-16.20101 V 22.478905 C 1738.2674,10.091881 1728.2093,0 1715.8222,0 Z"
     fill="#ed1941"
     id="path3"
     style="stroke-width:33.7521" />
  <path
     d="m 958.62741,161.06507 c 0,-7.35796 7.9655,-11.94825 14.3109,-8.23552 l 639.73749,373.26458 c 6.3454,3.67898 14.3109,-0.87755 14.3109,-8.23551 V 0 h -55.8598 c -12.387,0 -22.4451,10.091881 -22.4451,22.478905 V 388.08176 L 917.01106,13.635852 c -3.47646,-2.058878 -7.45921,-3.138946 -11.44196,-3.138946 -12.38703,0 -22.47891,10.091881 -22.47891,22.445153 V 709.60435 c 0,14.58091 9.95688,23.69398 25.95538,23.69398 l 49.6156,0.10126 V 161.03131 Z"
     fill="#ed1941"
     id="path4"
     style="stroke-width:33.7521" />
  <path
     d="m 2538.8337,572.03075 c -1.5189,-2.36265 -4.1178,-3.81399 -6.953,-3.81399 h -489.8443 c -2.8014,0 -5.4004,1.4851 -6.9192,3.81399 l -100.7163,160.93006 h 75.9085 c 6.9529,0 13.3321,-3.47647 17.0448,-9.38309 l 58.5262,-93.15582 399.3212,-0.37127 59.7412,93.5946 c 3.7465,5.80536 10.0919,9.28183 17.0111,9.28183 h 78.7774 L 2538.8337,571.997 Z"
     fill="#ed1941"
     id="path5"
     style="stroke-width:33.7521" />
  <path
     d="M 2753.9021,701.94262 2309.3868,9.8218639 c -3.7127,-5.7716108 -10.0581,-9.28183015 -16.9435,-9.28183015 -6.8855,0 -12.9946,3.34145885 -16.7411,8.94430905 L 1810.7669,701.57135 c -4.1515,6.21039 -4.5565,14.10838 -1.0463,20.69004 3.5102,6.64917 10.3282,10.69942 17.7874,10.69942 h 65.8503 l 388.7568,-607.84174 c 3.274,-5.02906 10.6319,-5.02906 13.8721,0.10126 l 386.0229,607.74048 h 54.9822 c 7.3917,0 14.1421,-4.0165 17.6524,-10.46315 3.5102,-6.44666 3.2739,-14.34465 -0.7088,-20.55504 z"
     fill="#ed1941"
     id="path6"
     style="stroke-width:33.7521" />
  <path
     d="M 2506.2966,520.86255 2295.751,189.5856 c -3.2065,-5.06282 -10.5982,-5.09657 -13.8721,-0.0675 l -213.7184,331.27696 c -3.544,5.46784 0.3713,12.65704 6.9192,12.65704 h 424.2978 c 6.4804,0 10.4294,-7.15545 6.9529,-12.62329 z M 2367.508,457.10482 h -155.8673 c -7.6279,0 -12.3195,-8.37052 -8.2692,-14.85093 l 75.8747,-123.09394 c 3.7465,-6.10913 12.5558,-6.21039 16.471,-0.20252 l 80.0263,123.1277 c 4.1852,6.48041 -0.4388,15.01969 -8.2018,15.01969 z"
     fill="#ed1941"
     id="path7"
     style="stroke-width:33.7521" />
  <path
     d="m 1430.8532,867.56422 c 0,-7.22295 2.5651,-13.39958 7.628,-18.63116 5.0628,-5.23158 11.2394,-7.79674 18.4624,-7.79674 7.2229,0 13.3658,2.56516 18.4624,7.62798 5.0965,5.06281 7.6279,11.34071 7.6279,18.76617 0,6.98669 -2.5651,13.06207 -7.6279,18.12488 -5.0629,5.06282 -11.2395,7.62798 -18.4624,7.62798 -7.223,0 -13.3659,-2.56516 -18.4624,-7.62798 -5.0966,-5.06281 -7.628,-11.13819 -7.628,-18.12488 z m 47.3879,207.74428 H 1435.916 V 918.79992 h 42.3251 z"
     fill="#144092"
     id="path8"
     style="stroke-width:33.7521" />
  <path
     d="m 1672.4845,844.98406 v 202.00634 c 0,10.3957 0.4051,19.8125 1.2489,28.3181 h -40.4013 c -1.0801,-5.2991 -1.5864,-11.3408 -1.5864,-18.1249 -3.6114,6.5816 -9.2818,11.8807 -17.0448,15.8972 -7.763,4.0165 -16.7073,6.0416 -26.8667,6.0416 -22.2764,0 -40.57,-7.7967 -54.8809,-23.3902 -14.3109,-15.5934 -21.4663,-35.2709 -21.4663,-59.03241 0,-23.76148 7.0542,-42.4939 21.1288,-58.22239 14.1084,-15.69473 32.0982,-23.52522 53.9021,-23.52522 21.8039,0 37.2286,6.48041 44.2153,19.40747 v -89.40934 h 41.6838 z m -118.3686,151.74949 c 0,13.80465 3.5777,24.63905 10.8007,32.60455 7.2229,7.9655 16.5385,11.9145 28.0142,11.9145 11.4757,0 20.4538,-4.0165 27.6767,-12.0833 7.223,-8.0667 10.8007,-18.9687 10.8007,-32.77328 0,-13.80461 -3.6115,-24.20026 -10.8007,-31.96324 -7.2229,-7.72924 -16.4372,-11.61073 -27.6767,-11.61073 -11.2394,0 -20.5213,3.91525 -27.8455,11.77949 -7.3242,7.83049 -10.9694,18.56366 -10.9694,32.13201 z"
     fill="#144092"
     id="path9"
     style="stroke-width:33.7521" />
  <path
     d="m 1711.1982,867.56422 c 0,-7.22295 2.5652,-13.39958 7.628,-18.63116 5.0628,-5.23158 11.2394,-7.79674 18.4624,-7.79674 7.2229,0 13.3658,2.56516 18.4624,7.62798 5.0966,5.09657 7.628,11.34071 7.628,18.76617 0,6.98669 -2.5652,13.06207 -7.628,18.12488 -5.0628,5.06282 -11.2395,7.62798 -18.4624,7.62798 -7.223,0 -13.3659,-2.56516 -18.4624,-7.62798 -5.0966,-5.09657 -7.628,-11.13819 -7.628,-18.12488 z m 47.388,207.74428 H 1716.261 V 918.79992 h 42.3252 z"
     fill="#144092"
     id="path10"
     style="stroke-width:33.7521" />
  <path
     d="m 1815.2222,937.53235 c 15.5935,-15.69474 35.1697,-23.52522 58.6949,-23.52522 23.5252,0 43.1015,7.83048 58.6949,23.52522 15.5935,15.69473 23.3903,35.50721 23.3903,59.47121 0,23.96404 -7.7968,43.81024 -23.3903,59.47124 -15.5934,15.6947 -35.1697,23.5252 -58.6949,23.5252 -23.5252,0 -43.1014,-7.8305 -58.6949,-23.5252 -15.5935,-15.6948 -23.3902,-35.5072 -23.3902,-59.47124 0,-23.964 7.7967,-43.81024 23.3902,-59.47121 z m 30.5119,92.27825 c 7.7292,7.8305 17.1123,11.7795 28.1493,11.7795 11.0369,0 20.42,-3.9152 28.1492,-11.7795 7.7293,-7.8305 11.6108,-18.7662 11.6108,-32.77329 0,-14.00712 -3.8815,-24.9428 -11.6108,-32.77329 -7.7292,-7.83049 -17.146,-11.77949 -28.1492,-11.77949 -11.0032,0 -20.4201,3.91524 -28.1493,11.77949 -7.7292,7.83049 -11.6107,18.76617 -11.6107,32.77329 0,14.00709 3.8815,24.94279 11.6107,32.77329 z"
     fill="#144092"
     id="path11"
     style="stroke-width:33.7521" />
  <path
     d="m 2031.9782,1075.3085 h -42.3251 V 918.79992 h 40.4013 v 19.1037 c 4.0165,-7.22295 10.3956,-12.96081 19.1037,-17.17982 8.708,-4.21902 17.6186,-6.37915 26.6979,-6.37915 22.6814,0 38.1736,8.70804 46.4429,26.09038 11.2394,-17.38234 27.778,-26.09038 49.6493,-26.09038 15.8973,0 29.3306,4.99531 40.2326,14.95218 10.9019,9.95687 16.3697,24.8078 16.3697,44.55279 v 101.45888 h -41.0425 v -92.88585 c 0,-8.91056 -2.2614,-16.066 -6.818,-21.46634 -4.5565,-5.40034 -11.5094,-8.13426 -20.8588,-8.13426 -8.708,0 -15.6947,2.97019 -20.9938,8.91056 -5.2991,5.94037 -7.9655,13.23083 -7.9655,21.93887 v 91.63702 h -41.9876 v -92.88585 c 0,-8.91056 -2.3289,-16.066 -6.9867,-21.46634 -4.6578,-5.40034 -11.577,-8.13426 -20.69,-8.13426 -9.1131,0 -16.0323,2.90268 -21.2976,8.7418 -5.2991,5.83911 -7.9655,13.19707 -7.9655,22.10763 v 91.63702 z"
     fill="#144092"
     id="path12"
     style="stroke-width:33.7521" />
  <path
     d="m 2262.2689,1032.6795 c 0,-13.3658 4.3203,-24.0652 13.0621,-32.132 8.7418,-8.06672 19.9475,-13.12954 33.7183,-15.28967 l 38.5112,-5.73786 c 7.8305,-1.08007 11.7795,-4.75905 11.7795,-11.1382 0,-5.90662 -2.2614,-10.80067 -6.818,-14.64841 -4.5565,-3.84774 -11.0707,-5.73786 -19.5424,-5.73786 -8.9106,0 -15.9648,2.43015 -21.1289,7.32421 -5.164,4.89405 -8.1005,10.90193 -8.7418,18.12488 l -37.5323,-7.9655 c 1.4851,-13.56835 8.168,-25.55034 20.0488,-35.94599 11.8807,-10.39565 27.5754,-15.59348 47.0841,-15.59348 23.3228,0 40.5026,5.5691 51.5395,16.7073 11.037,11.13819 16.5385,25.38158 16.5385,42.79767 v 76.98861 c 0,9.3155 0.6413,17.6186 1.9239,24.8078 h -38.8149 c -1.0801,-4.6578 -1.5864,-10.902 -1.5864,-18.7662 -9.9906,15.4922 -25.3478,23.2214 -46.1391,23.2214 -16.1335,0 -29.0943,-4.6578 -38.9837,-13.9733 -9.8893,-9.3156 -14.7834,-20.3526 -14.7834,-33.0771 z m 62.6439,15.5598 c 9.9569,0 18.1924,-2.8015 24.639,-8.4043 6.4467,-5.6029 9.7207,-14.8847 9.7207,-27.8455 v -6.9867 l -35.3385,5.4004 c -12.9608,1.9238 -19.4075,8.4717 -19.4075,19.7112 0,5.0966 1.8226,9.3831 5.4004,12.8933 3.5777,3.5102 8.573,5.2316 14.9522,5.2316 z"
     fill="#144092"
     id="path13"
     style="stroke-width:33.7521" />
  <path
     d="m 2431.1982,1031.7007 36.2498,-7.9655 c 0.405,6.7842 3.1389,12.4546 8.1005,17.0448 4.9615,4.5903 11.8132,6.818 20.5213,6.818 6.5816,0 11.6444,-1.4851 15.2897,-4.4553 3.6452,-2.9702 5.4003,-6.6829 5.4003,-11.1382 0,-7.8305 -5.6366,-12.9608 -16.8761,-15.2897 l -20.69,-4.7591 c -14.6484,-3.1727 -25.6179,-8.9105 -32.9421,-17.17978 -7.3242,-8.26926 -10.9694,-18.12488 -10.9694,-29.6006 0,-14.20963 5.5691,-26.29289 16.7073,-36.24976 11.1382,-9.95687 25.0778,-14.95219 41.8189,-14.95219 10.5981,0 19.9475,1.5526 28.0142,4.62404 8.0668,3.07144 14.3109,6.98669 18.7662,11.77949 4.4553,4.7928 7.8305,9.5856 10.1594,14.47965 2.3289,4.89406 3.814,9.65311 4.4553,14.3109 l -35.3385,7.9655 c -0.8438,-5.5016 -3.3415,-10.39565 -7.493,-14.64842 -4.1515,-4.25277 -10.2269,-6.37915 -18.2936,-6.37915 -5.5016,0 -10.2269,1.48509 -14.1422,4.45528 -3.9152,2.97019 -5.9066,6.68292 -5.9066,11.1382 0,7.62797 4.7591,12.31952 14.3109,13.97337 l 22.2764,4.75905 c 15.0535,3.1727 26.5629,9.01181 34.5284,17.48359 7.9655,8.47173 11.9145,18.66493 11.9145,30.54563 0,13.9734 -5.2991,26.0904 -15.8972,36.2498 -10.5982,10.1594 -25.5504,15.2897 -44.8566,15.2897 -11.0369,0 -20.8925,-1.6539 -29.6006,-4.9278 -8.708,-3.274 -15.4247,-7.5267 -20.2175,-12.7246 -4.759,-5.1978 -8.4043,-10.3956 -10.8007,-15.5934 -2.3964,-5.1979 -3.9827,-10.2269 -4.5903,-15.121 z"
     fill="#144092"
     id="path14"
     style="stroke-width:33.7521" />
</svg>
